<?xml version="1.0" standalone="no"?>
<!DOCTYPE svg PUBLIC "-//W3C//DTD SVG 20010904//EN"
 "http://www.w3.org/TR/2001/REC-SVG-20010904/DTD/svg10.dtd">
<svg version="1.0" xmlns="http://www.w3.org/2000/svg"
 width="228.000000pt" height="76.000000pt" viewBox="0 0 228.000000 76.000000"
 preserveAspectRatio="xMidYMid meet">

<g transform="translate(0.000000,76.000000) scale(0.100000,-0.100000)"
fill="#000000" stroke="none">
<path d="M0 380 l0 -380 1140 0 1140 0 0 380 0 380 -1140 0 -1140 0 0 -380z
m620 30 c0 -47 -4 -80 -10 -80 -6 0 -10 33 -10 80 0 47 4 80 10 80 6 0 10 -33
10 -80z m290 2 l0 -79 -33 -1 c-44 -2 -58 9 -59 46 -1 40 19 65 49 59 20 -4
23 0 23 24 0 16 5 29 10 29 6 0 10 -33 10 -78z m388 43 c-4 -20 -1 -22 26 -21
31 1 31 0 34 -51 2 -32 -1 -53 -7 -53 -6 0 -11 20 -11 45 0 38 -3 45 -19 45
-16 0 -20 -8 -23 -40 -4 -56 -21 -55 -20 0 0 96 2 111 13 104 6 -3 9 -17 7
-29z m352 -46 c0 -51 -4 -78 -10 -74 -18 11 -12 155 7 155 2 0 3 -36 3 -81z
m-970 61 c0 -5 -7 -10 -15 -10 -8 0 -15 5 -15 10 0 6 7 10 15 10 8 0 15 -4 15
-10z m361 -30 c10 -1 9 -4 -3 -14 -24 -18 -24 -76 -1 -76 13 0 14 -3 6 -11
-22 -22 -43 -2 -43 40 0 22 -6 42 -12 45 -10 5 -10 7 0 12 6 3 12 13 12 22 1
15 2 15 14 0 7 -10 19 -18 27 -18z m-713 -55 l3 -51 -38 1 c-32 0 -39 4 -41
23 -2 16 3 25 20 31 13 5 26 7 31 4 4 -2 7 3 7 11 0 11 -10 16 -31 16 -19 0
-28 4 -24 11 4 5 21 9 38 7 31 -3 32 -5 35 -53z m126 23 c7 -19 6 -35 -3 -54
-10 -22 -16 -25 -41 -20 -27 5 -30 3 -30 -20 0 -14 -4 -22 -10 -19 -5 3 -10
37 -10 74 l0 68 42 -1 c37 -1 44 -5 52 -28z m116 12 c24 -46 -3 -96 -46 -86
-21 6 -24 3 -24 -19 0 -15 -4 -24 -10 -20 -5 3 -10 36 -10 73 l0 68 40 1 c30
2 42 -3 50 -17z m110 -35 c0 -24 -4 -47 -10 -50 -6 -4 -10 15 -10 50 0 35 4
54 10 50 6 -3 10 -26 10 -50z m97 47 c6 -4 13 -16 15 -27 2 -17 -3 -21 -35
-23 -46 -4 -45 -26 1 -30 36 -4 34 -22 -3 -22 -30 0 -55 25 -55 55 0 41 44 68
77 47z m361 -4 c7 -7 12 -20 12 -30 0 -14 -8 -18 -36 -18 -45 0 -42 -24 4 -28
39 -4 33 -22 -7 -22 -33 0 -51 16 -51 48 0 53 46 82 78 50z m109 -4 c2 -7 -5
-10 -20 -7 -27 5 -41 -17 -31 -49 4 -15 12 -19 30 -15 16 3 23 0 21 -7 -2 -6
-14 -13 -27 -14 -44 -7 -68 59 -34 93 18 17 55 17 61 -1z m231 -41 c2 -32 -1
-53 -7 -53 -6 0 -11 20 -11 45 0 38 -3 45 -20 45 -22 0 -22 0 -24 -50 -3 -47
-20 -45 -24 4 -5 54 1 62 44 61 l39 0 3 -52z m122 38 c22 -42 -2 -91 -45 -91
-30 0 -45 19 -45 55 0 17 5 36 12 43 19 19 66 15 78 -7z m168 7 c17 -17 15
-64 -4 -82 -18 -19 -55 -21 -72 -4 -17 17 -15 64 4 82 18 19 55 21 72 4z m116
-15 c-10 -40 -12 -43 -40 -43 -14 0 -22 -4 -19 -10 3 -5 17 -10 31 -10 14 0
27 -7 30 -15 10 -25 -16 -46 -50 -43 -31 3 -31 4 -32 63 -2 71 7 85 52 85 32
0 34 -2 28 -27z m50 -11 c5 -18 12 -32 16 -32 4 0 11 14 16 32 5 17 15 33 22
36 7 2 2 -24 -15 -72 -15 -42 -31 -76 -36 -76 -5 0 -7 10 -4 21 3 12 -3 45
-14 73 -23 60 -22 59 -7 54 7 -3 17 -19 22 -36z"/>
<path d="M840 385 c0 -32 3 -36 23 -33 17 2 22 10 22 33 0 23 -5 31 -22 33
-20 3 -23 -1 -23 -33z"/>
<path d="M277 373 c-13 -12 -7 -23 13 -23 11 0 20 7 20 15 0 15 -21 21 -33 8z"/>
<path d="M385 401 c-8 -26 4 -51 26 -51 20 0 36 40 24 59 -10 18 -43 12 -50
-8z"/>
<path d="M504 406 c-10 -26 1 -51 22 -54 24 -3 38 20 29 49 -7 22 -43 25 -51
5z"/>
<path d="M725 410 c-4 -6 5 -10 19 -10 14 0 26 5 26 10 0 6 -9 10 -19 10 -11
0 -23 -4 -26 -10z"/>
<path d="M1090 414 c-10 -12 -8 -14 14 -14 28 0 35 14 12 23 -8 3 -20 -1 -26
-9z"/>
<path d="M1534 406 c-11 -29 0 -51 26 -51 21 0 25 5 25 30 0 24 -5 31 -23 33
-13 2 -24 -3 -28 -12z"/>
<path d="M1704 406 c-11 -29 0 -51 26 -51 21 0 25 5 25 30 0 24 -5 31 -23 33
-13 2 -24 -3 -28 -12z"/>
<path d="M1831 421 c-15 -10 -8 -41 9 -41 15 0 25 29 14 40 -5 5 -15 5 -23 1z"/>
<path d="M1820 326 c0 -11 9 -16 26 -16 31 0 28 23 -4 28 -15 2 -22 -2 -22
-12z"/>
</g>
</svg>
